<?xml version="1.0" encoding="UTF-8"?>
<svg id="Layer_2" xmlns="http://www.w3.org/2000/svg" xmlns:xlink="http://www.w3.org/1999/xlink" viewBox="0 0 23.73 20.54">
  <defs>
    <style>
      .cls-1 {
        fill: none;
      }

      .cls-2 {
        clip-path: url(#clippath-1);
      }

      .cls-3 {
        clip-path: url(#clippath);
      }
    </style>
    <clipPath id="clippath">
      <rect class="cls-1" width="23.73" height="20.54"/>
    </clipPath>
    <clipPath id="clippath-1">
      <rect class="cls-1" y="0" width="23.73" height="20.54"/>
    </clipPath>
  </defs>
  <g id="Artwork_65">
    <g class="cls-3">
      <path d="M3.67,9.37l4.91,8.5,1.53-.9-4.88-8.47-1.56.87ZM13.62,16.97l1.56.9,4.91-8.5-1.56-.87-4.91,8.47ZM6.94,5.44h9.82v-1.95H6.94v1.95ZM2.06,10.27L7,1.8h9.77l4.94,8.47-4.94,8.5H7L2.06,10.27ZM5.97,0L0,10.27l5.97,10.27h11.83l5.94-10.27L17.79,0H5.97Z"/>
      <rect x="11.06" y="7" width="1.47" height="5.13"/>
      <g class="cls-2">
        <path d="M12.71,14.7c0,.51-.41.92-.92.92s-.92-.41-.92-.92.41-.92.92-.92.92.41.92.92"/>
        <path d="M11.79,15.8c-.61,0-1.1-.49-1.1-1.1s.49-1.1,1.1-1.1,1.1.49,1.1,1.1-.49,1.1-1.1,1.1M11.79,13.97c-.4,0-.73.33-.73.73s.33.73.73.73.73-.33.73-.73-.33-.73-.73-.73"/>
      </g>
    </g>
  </g>
</svg>